<mxfile host="Electron" agent="Mozilla/5.0 (Macintosh; Intel Mac OS X 10_15_7) AppleWebKit/537.36 (KHTML, like Gecko) draw.io/24.7.5 Chrome/126.0.6478.183 Electron/31.3.0 Safari/537.36" version="24.7.5">
  <diagram name="PÃ¡gina-1" id="OvpRBMXeK3MPmEGVYvy8">
    <mxGraphModel dx="1445" dy="968" grid="1" gridSize="10" guides="1" tooltips="1" connect="1" arrows="1" fold="1" page="1" pageScale="1" pageWidth="1169" pageHeight="1654" math="0" shadow="0">
      <root>
        <mxCell id="0" />
        <mxCell id="1" parent="0" />
        <mxCell id="paQdBZ3JFWoIwip38OUz-10" value="" style="shape=note;whiteSpace=wrap;html=1;backgroundOutline=1;darkOpacity=0.05;" vertex="1" parent="1">
          <mxGeometry x="70" y="230" width="360" height="410" as="geometry" />
        </mxCell>
        <mxCell id="paQdBZ3JFWoIwip38OUz-12" value="" style="shape=note;whiteSpace=wrap;html=1;backgroundOutline=1;darkOpacity=0.05;" vertex="1" parent="1">
          <mxGeometry x="500" y="150" width="760" height="710" as="geometry" />
        </mxCell>
        <mxCell id="paQdBZ3JFWoIwip38OUz-15" value="" style="rounded=0;whiteSpace=wrap;html=1;fillColor=#f5f5f5;fontColor=#333333;strokeColor=#666666;" vertex="1" parent="1">
          <mxGeometry x="90" y="280" width="250" height="50" as="geometry" />
        </mxCell>
        <mxCell id="paQdBZ3JFWoIwip38OUz-19" value="" style="rounded=1;whiteSpace=wrap;html=1;fillColor=#dae8fc;gradientColor=#7ea6e0;strokeColor=#6c8ebf;" vertex="1" parent="1">
          <mxGeometry x="100" y="360" width="160" height="40" as="geometry" />
        </mxCell>
        <mxCell id="paQdBZ3JFWoIwip38OUz-26" style="edgeStyle=orthogonalEdgeStyle;rounded=0;orthogonalLoop=1;jettySize=auto;html=1;" edge="1" parent="1" source="paQdBZ3JFWoIwip38OUz-20" target="paQdBZ3JFWoIwip38OUz-25">
          <mxGeometry relative="1" as="geometry" />
        </mxCell>
        <mxCell id="paQdBZ3JFWoIwip38OUz-27" style="edgeStyle=orthogonalEdgeStyle;rounded=0;orthogonalLoop=1;jettySize=auto;html=1;" edge="1" parent="1" source="paQdBZ3JFWoIwip38OUz-20" target="paQdBZ3JFWoIwip38OUz-23">
          <mxGeometry relative="1" as="geometry" />
        </mxCell>
        <mxCell id="paQdBZ3JFWoIwip38OUz-20" value="&lt;font style=&quot;font-size: 28px;&quot;&gt;&amp;lt; 100&lt;/font&gt;" style="rhombus;whiteSpace=wrap;html=1;" vertex="1" parent="1">
          <mxGeometry x="640" y="205" width="280" height="230" as="geometry" />
        </mxCell>
        <mxCell id="paQdBZ3JFWoIwip38OUz-21" value="" style="edgeStyle=orthogonalEdgeStyle;rounded=0;orthogonalLoop=1;jettySize=auto;html=1;entryX=0.5;entryY=0;entryDx=0;entryDy=0;" edge="1" parent="1" source="paQdBZ3JFWoIwip38OUz-15">
          <mxGeometry relative="1" as="geometry">
            <mxPoint x="235" y="230" as="sourcePoint" />
            <mxPoint x="780" y="205" as="targetPoint" />
            <Array as="points">
              <mxPoint x="235" y="190" />
              <mxPoint x="500" y="190" />
              <mxPoint x="500" y="185" />
              <mxPoint x="780" y="185" />
            </Array>
          </mxGeometry>
        </mxCell>
        <mxCell id="paQdBZ3JFWoIwip38OUz-22" value="&amp;nbsp; &amp;nbsp;&lt;font style=&quot;font-size: 28px;&quot;&gt;numero&amp;nbsp;&lt;/font&gt;&amp;nbsp;" style="edgeLabel;html=1;align=center;verticalAlign=middle;resizable=0;points=[];" vertex="1" connectable="0" parent="paQdBZ3JFWoIwip38OUz-21">
          <mxGeometry x="0.1705" y="-2" relative="1" as="geometry">
            <mxPoint x="59" y="1" as="offset" />
          </mxGeometry>
        </mxCell>
        <mxCell id="paQdBZ3JFWoIwip38OUz-23" value="&lt;font style=&quot;font-size: 30px;&quot;&gt;es menor&lt;/font&gt;" style="shape=document;whiteSpace=wrap;html=1;boundedLbl=1;" vertex="1" parent="1">
          <mxGeometry x="630" y="510" width="250" height="160" as="geometry" />
        </mxCell>
        <mxCell id="paQdBZ3JFWoIwip38OUz-25" value="&lt;font style=&quot;font-size: 30px;&quot;&gt;NO es menor&lt;/font&gt;" style="shape=document;whiteSpace=wrap;html=1;boundedLbl=1;" vertex="1" parent="1">
          <mxGeometry x="990" y="370" width="250" height="160" as="geometry" />
        </mxCell>
      </root>
    </mxGraphModel>
  </diagram>
</mxfile>
